<?xml version="1.0" encoding="UTF-8"?>
<svg id="Capa_2" xmlns="http://www.w3.org/2000/svg" version="1.1" viewBox="0 0 716.61 208.71">
  <!-- Generator: Adobe Illustrator 30.3.0, SVG Export Plug-In . SVG Version: 2.1.3 Build 182)  -->
  <defs>
    <style>
      .st0 {
        fill: #fff;
      }

      .st1 {
        fill: #18403e;
      }

      .st2 {
        fill: #472307;
      }
    </style>
  </defs>
  <g id="Capa_2-2">
    <circle class="st0" cx="104.36" cy="104.36" r="104.36"/>
    <g>
      <g>
        <path class="st0" d="M274.32,139.41c-22.15,0-35.81-10.61-37.47-29.09l-.35-3.88h23.54l.56,2.87c1.35,6.84,6.26,10.77,13.47,10.77,4.74,0,9.85-2.11,9.85-6.76,0-3.59-1.06-7.34-13.63-10.3-15.6-3.76-30.02-9.8-30.02-28.37,0-15.95,13.82-27.52,32.86-27.52s31.54,10.52,33.78,28.87l.49,3.99h-23.92l-.36-3.16c-.8-6.98-4.26-10.37-10.58-10.37-3.62,0-7.95,1.08-7.95,6.17,0,3.66,1.08,6.72,14.7,9.94,19.39,4.47,28.83,13.98,28.83,29.08,0,8.34-3.73,15.69-10.51,20.74-6.09,4.52-14.36,7.02-23.3,7.02h.01Z"/>
        <path class="st0" d="M343.47,139.41c-11.06,0-20.34-3.65-26.83-10.56-6.19-6.59-9.46-15.64-9.46-26.2,0-22.34,14.25-36.77,36.29-36.77s36.29,14.44,36.29,36.77c0,10.56-3.27,19.62-9.46,26.2-6.5,6.91-15.78,10.56-26.83,10.56h.01-.01ZM343.47,84.5c-11.03,0-12.22,12.69-12.22,18.15s1.2,18.15,12.22,18.15,12.22-12.69,12.22-18.15-1.2-18.15-12.22-18.15Z"/>
        <path class="st0" d="M383.33,137.75v-70.21h6.53c-4.5-1.78-7.36-5.93-7.36-11.27,0-7.08,5.29-12.22,12.57-12.22s12.57,5.14,12.57,12.22c0,5.34-2.85,9.49-7.36,11.27h6.53v70.21h-23.49,0Z"/>
        <path class="st0" d="M431.72,138.58c-13.54,0-16.76-7.86-17.07-14.48-.25-2.97-.25-6-.25-10.19V43.46h23.49v70.1c0,2.38,0,3.97.11,5.48.03.28.07.46.1.58.25.07.79.17,1.86.17.47,0,1.02-.02,1.63-.06l3.78-.24v18.24l-3.16.35c-3.09.35-6.32.49-10.48.49h0Z"/>
        <polygon class="st0" points="470.98 137.75 470.98 68.72 443.22 68.72 443.22 48.8 522.21 48.8 522.21 68.72 494.46 68.72 494.46 137.75 470.98 137.75"/>
        <path class="st0" d="M545.11,139.41c-9.87,0-18.29-3.18-24.36-9.2-6.49-6.43-9.92-15.88-9.92-27.33,0-21.79,14.64-37.01,35.58-37.01,10.18,0,18.72,3.71,24.73,10.75,5.4,6.33,8.36,15.11,8.36,24.71,0,1.62,0,3.63-.26,5.97l-.32,2.81h.48l-.94,4.32c-3.41,15.64-15.88,24.98-33.37,24.98h.02ZM534.92,110.47c1.72,9.05,6.45,10.32,10.54,10.32,5.36,0,8.88-2.8,9.65-7.67l.42-2.65h-20.62.01ZM554.89,92.68c-1.83-7.25-6.01-8.19-9.18-8.19-1.99,0-7.51,0-9.97,8.19h19.16-.01Z"/>
        <path class="st0" d="M613.07,139.41c-9.77,0-18.08-3.19-24.05-9.24-6.31-6.4-9.64-15.74-9.64-27.05s3.57-20.7,10.32-27.46c6.31-6.31,15.11-9.79,24.78-9.79,17.95,0,30.96,11.13,32.37,27.69l.33,3.86h-23.01l-.5-2.97c-1.49-8.83-5.88-9.96-9.54-9.96-9.29,0-10.68,11-10.68,17.55,0,8.55,1.83,18.74,10.56,18.74,4.92,0,8.06-3.08,9.32-9.15l.59-2.83h23.5l-.73,4.17c-2.9,16.55-15.48,26.43-33.63,26.43h.01s0,.01,0,.01Z"/>
        <path class="st0" d="M693.13,137.75v-36.89c0-2.56,0-5.44-.23-8.51-.39-5.43-3.02-7.86-8.55-7.86-9.28.14-10.68,13.14-10.68,20.87v32.37h-23.49V42.86h23.49v27.54c4.7-3.12,9.84-4.52,16.48-4.52,14.93,0,24.39,7.58,25.95,20.81.37,3.28.49,6.5.49,11.92v39.14h-23.49.03Z"/>
      </g>
      <g>
        <g>
          <path class="st2" d="M303.38,76.43h-16.73c-.95-8.31-5.57-13.52-14.11-13.52-6.53,0-11.51,3.08-11.51,9.73s4.38,10.32,17.43,13.4c18.03,4.15,26.09,12.45,26.09,25.62,0,15.42-14.11,24.2-30.24,24.2-19.57,0-32.38-8.66-33.92-25.86h16.73c1.78,9.01,8.66,13.64,16.97,13.64,7.48,0,13.4-4.04,13.4-10.32,0-6.88-4.27-10.91-16.36-13.76-16.73-4.04-27.28-9.85-27.28-24.91s13.64-23.96,29.29-23.96c19.57,0,28.47,11.15,30.24,25.74h0Z"/>
          <path class="st2" d="M376.21,102.65c0,19.1-11.74,33.21-32.74,33.21s-32.74-14.11-32.74-33.21,11.74-33.21,32.74-33.21,32.74,13.99,32.74,33.21ZM359.25,102.65c0-13.64-5.93-21.71-15.78-21.71s-15.78,8.07-15.78,21.71,5.93,21.71,15.78,21.71,15.78-8.19,15.78-21.71Z"/>
          <path class="st2" d="M404.08,56.27c0,5.22-3.68,8.66-9.01,8.66s-9.01-3.44-9.01-8.66,3.68-8.66,9.01-8.66,9.01,3.56,9.01,8.66ZM386.88,134.2v-63.1h16.36v63.1h-16.36Z"/>
          <path class="st2" d="M434.33,113.56c0,2.49,0,4.15.12,5.81.36,3.2,1.78,4.27,7.36,3.92v11.27c-3.2.36-6.41.47-10.08.47-8.07,0-13.16-2.97-13.52-11.15-.24-2.85-.24-5.81-.24-9.96V47.03h16.36v66.54h0Z"/>
        </g>
        <g>
          <path class="st1" d="M490.9,65.17v69.03h-16.36v-69.03h-27.76v-12.81h71.88v12.81h-27.76,0Z"/>
          <path class="st1" d="M575.71,106.92h-44.84c1.07,13.28,7,17.43,14.59,17.43,7,0,12.1-3.92,13.16-10.68h16.36c-3.2,14.71-15.06,22.18-29.89,22.18-17.31,0-30.72-10.79-30.72-32.98,0-19.34,12.69-33.45,32.03-33.45s29.53,14.71,29.53,31.91c0,1.54,0,3.44-.24,5.57h0l.02.02ZM531.35,96.24h27.76c-1.07-9.96-5.57-15.3-13.4-15.3s-12.93,4.86-14.35,15.3h-.01Z"/>
          <path class="st1" d="M643.31,93.87h-16.13c-1.54-9.13-6.29-12.93-13.05-12.93-8.31,0-14.23,6.76-14.23,21.11,0,15.66,5.93,22.3,14.11,22.3,6.41,0,11.15-4.04,12.81-11.98h16.36c-2.73,15.54-14.35,23.49-30.12,23.49-17.19,0-30.12-10.91-30.12-32.74s14.23-33.68,31.55-33.68,27.64,10.44,28.83,24.43h-.01Z"/>
          <path class="st1" d="M713.06,98.61v35.58h-16.36v-33.33c0-2.61,0-5.57-.24-8.78-.47-6.64-4.16-11.15-12.1-11.15-7.95.12-14.23,6.88-14.23,24.43v28.83h-16.36V46.41h16.36v34.87l4.86-7.48c4.5-3.2,9.13-4.38,15.18-4.38,13.4,0,21.11,6.64,22.42,17.67.36,3.2.47,6.41.47,11.51h0Z"/>
        </g>
      </g>
    </g>
    <g>
      <g>
        <path class="st1" d="M104.36,2.65C48.18,2.65,2.65,47.53,2.65,102.91c0,1.55.03,3.07.11,4.6.36,7.81,1.63,15.4,3.69,22.65,1.25,4.09,3.26,4.99,7.8,3.51,21.59-7.34,50.62-12.22,82.98-13.25h0c2.76-.15,5.08-2.09,5.81-4.73.11-.37.29-1.18.29-1.18h.2v-.35h0v-5.37s-.04-2.14-1.1-2.52l-4.77-2.4s-1.7-1.2-5.7.33c0,0-12.86,6.88-22.22.34,0,0-6.23-3.87-9.48-8.34-3.26-4.47-6.98-21.55-6.98-21.55,0,0,9.89-.48,12.87-1.35,0,0,.74-.2,4.26-.47,0,0,4.47-.47,10.29.74,0,0,10.7,1.74,14.35,12.88,0,0,1.96,6.34,1.83,12.55,0,0,.27,2.47,2.37,3.21l3.18,1.54s1.04,0,1.06-1.81v-12.55s1.05-8.62-5.8-12.95c0,0-6.43-3.94-10.77-9.62,0,0-5.23-8.1-.2-19.83,0,0,3.68-8.43,9.28-13.86,0,0,5.69-4.36,9.12-9.52,0,0,.99,3.56,7.86,9.52,0,0,5.78,5.08,9.76,13.53,0,0,5.33,9.03,1.08,19.76,0,0-2.97,5.7-10.38,10.33,0,0-6.62,3.47-6.6,12.91v12.28s-.44,3.11,1.63,1.79c0,0,3.26-1.87,4.51-3.92,0,0,.18-8.1,1.44-12.38,0,0,.99-7.48,10.29-11.49,0,0,6.77-2.67,14.27-2.76,0,0,5.87.35,10.47.98,0,0,2.53.86,7.59.48,0,0-1.27,2.55-1.36,5.39,0,0-.44,5.7-2.43,9.52,0,0-3.97,12.2-16.44,17.09,0,0-9.03,2.67-21.04-3.03,0,0-1.36-.53-2.79.09l-4.33,2.31s-1.83.62-1.81,3.04v4.66s-.02,1.43.4,3.06h0c1.08,2.04,3.17,3.43,5.58,3.44h0c31.17.21,59.74,3.97,82.27,10.11,5.23,1.22,6.63.82,8.12-3.9,1.84-7.55,2.81-15.41,2.81-23.51,0-55.37-45.53-100.26-101.71-100.26h-.02.07Z"/>
        <g>
          <path class="st2" d="M191.83,133.99h0c-22.65-6.03-51.32-9.64-82.5-9.64h-.32c-.56.1-.98.6-.98,1.19,0,.39.18.75.47.96h-.07l3.59,2.04h0v4.73l12.86,7.31,2.3,1.31,11.76,6.69v4.44c.91.16,1.6.94,1.6,1.89,0,1.06-.87,1.93-1.95,1.93s-1.95-.86-1.95-1.93c0-.94.68-1.72,1.6-1.89v-3.81l-11.49-6.53h-.01v10.77c.86.2,1.51.96,1.51,1.87,0,1.06-.87,1.93-1.95,1.93s-1.95-.86-1.95-1.93c0-.91.63-1.67,1.5-1.87v-10.31l-13.82-7.87v19.64l14.7,8.37h0l14.06,7.98-.02.03h.02v3.87c.9.16,1.6.94,1.6,1.89,0,1.06-.87,1.93-1.95,1.93s-1.95-.86-1.95-1.93c0-.94.68-1.72,1.59-1.89v-3.28l-12.89-7.34v15.27c.86.2,1.5.96,1.5,1.86,0,.23-.04.44-.11.65h-.95c.14-.18.22-.4.22-.65,0-.6-.49-1.08-1.1-1.08s-1.1.48-1.1,1.08c0,.25.08.46.22.65h-.96c-.08-.2-.11-.42-.11-.65,0-.91.64-1.67,1.51-1.87v-14.79l-15.97-9.09-.04-.03v-25.25l-4.9-2.79v43.63c1.16.51,1.96,1.67,1.96,3.01,0,1.84-1.51,3.32-3.36,3.32s-3.37-1.48-3.37-3.32c0-1.38.84-2.55,2.05-3.05v-43.64l-4.99,2.85v25.23h0l-16.01,9.13v14.85c.86.2,1.51.96,1.51,1.88,0,.21-.03.4-.1.58h-.93c.11-.17.17-.37.17-.58,0-.6-.49-1.08-1.1-1.08s-1.1.48-1.1,1.08c0,.22.06.41.18.58h-.93c-.06-.18-.1-.37-.1-.58,0-.91.63-1.67,1.5-1.88v-15.32l-12.9,7.34v3.28c.9.16,1.59.94,1.59,1.89,0,1.06-.87,1.93-1.95,1.93s-1.95-.86-1.95-1.93c0-.94.69-1.72,1.6-1.89v-3.9h.01l14.04-8h0l14.71-8.36v-19.43l-13.83,7.88v10.09c.86.2,1.5.96,1.5,1.87,0,1.06-.87,1.93-1.95,1.93s-1.95-.86-1.95-1.93c0-.91.64-1.67,1.51-1.87v-10.55h-.01l-9.84,5.61v3.45c.91.17,1.59.94,1.59,1.89,0,1.06-.87,1.93-1.95,1.93s-1.95-.86-1.95-1.93c0-.94.68-1.72,1.6-1.89v-4.07h.02l10.1-5.75,3.94-2.24,11.23-6.4v-4.92h0l4.14-2.36h0c.13-.18.22-.41.22-.66,0-.53-.37-.97-.87-1.05-32.67.81-62.06,5.58-83.88,12.9-4.85,2-5.84,4.27-4.35,8.14,6.08,14.28,15.48,26.86,27.24,36.8,17.52,14.82,40.29,23.76,65.18,23.76s47.06-8.95,64.81-23.76c12.78-10.67,22.88-24.39,28.89-39.99,1.98-4.79.76-6.26-5.48-8.33h-.02v-.03Z"/>
          <path class="st2" d="M137.51,154.89c0,.6.49,1.08,1.1,1.08s1.1-.48,1.1-1.08-.49-1.08-1.1-1.08-1.1.48-1.1,1.08Z"/>
          <path class="st2" d="M125.19,155.16c0,.6.49,1.08,1.1,1.08s1.1-.48,1.1-1.08-.49-1.08-1.1-1.08-1.1.48-1.1,1.08Z"/>
          <path class="st2" d="M69.81,153.78c0,.6.49,1.08,1.1,1.08s1.1-.48,1.1-1.08-.49-1.08-1.1-1.08-1.1.48-1.1,1.08Z"/>
          <path class="st2" d="M80.55,155.18c0,.6.49,1.08,1.1,1.08s1.1-.48,1.1-1.08-.49-1.08-1.1-1.08-1.1.48-1.1,1.08Z"/>
          <path class="st2" d="M66.36,177.1c0,.6.49,1.08,1.1,1.08s1.1-.48,1.1-1.08-.49-1.08-1.1-1.08-1.1.48-1.1,1.08Z"/>
          <path class="st2" d="M139.31,177.04c0,.6.49,1.08,1.1,1.08s1.1-.48,1.1-1.08-.49-1.08-1.1-1.08-1.1.48-1.1,1.08Z"/>
          <path class="st2" d="M102.06,174.42c0,1.02.83,1.84,1.86,1.84s1.86-.82,1.86-1.84-.83-1.83-1.86-1.83-1.86.82-1.86,1.83Z"/>
        </g>
      </g>
      <path class="st1" d="M152.8,81.25c.04.25-.14.66-.37.8-.22.14-.21.15-.48.18-.27.04-.64-.11-.83-.35-.07-.09-.12-.25-.15-.3s-.06.02-.11.02c-1.25-.04-2.53-.04-3.79-.03-2.35,1.71-4.71,3.4-7.07,5.11,2.28-.06,4.56-.06,6.84-.01.04,0,.05.07.11,0s.17-.34.34-.42c.16-.08.22-.15.47-.17.24-.02.67.14.81.36.13.22.14.21.18.46s-.15.66-.37.8-.2.14-.48.18-.62-.11-.84-.35c-.08-.08-.04-.23-.15-.28-.11-.05.22.02-.1,0s.84.01-.29,0c-1.12,0-5.3.03-7.03.03-.06,0-.19-.02-.2-.06-3.02,2.15-6.08,4.2-9.19,6.22,2.27.16,4.54.28,6.81.31.03,0,0,.06.06-.01.05-.08.19-.33.35-.41s.22-.14.46-.16.67.16.8.39.13.21.16.47-.17.66-.4.79-.21.14-.49.16-.61-.13-.82-.39c-.06-.08-.03-.21-.13-.27s.25.02-.06-.01.83.05-.29-.01-5.28-.25-7.01-.33c-.06,0-.19-.03-.2-.07-7.52,4.85-15.91,8.37-23.82,12.51,0,.03.06.36.06.39-.04.36.08.58-.31.58s-.27-.25-.31-.61c0-.04.06-.31.06-.35-7.46-4.12-15.43-7.69-22.63-12.27-.06.04-.08.06-.16.07-2.4.16-4.81.41-7.22.48h-.04c-.07.07-.07.19-.12.27-.17.27-.53.42-.8.41s-.25-.03-.48-.16c-.23-.13-.42-.52-.4-.78s.03-.25.16-.47c.13-.23.56-.4.8-.39s.29.07.46.14c.16.07.3.33.35.4s.03,0,.06,0c2.25-.05,4.48-.23,6.72-.44-3.02-1.92-6-3.87-8.97-5.88,0,.04-.13.07-.19.07-1.7.04-5.79.21-6.89.27s.02-.02-.29.01.01-.05-.09,0c-.11.06-.08.2-.15.28-.2.25-.54.41-.81.37-.27-.03-.25-.04-.48-.16-.23-.13-.42-.53-.39-.79s.04-.24.16-.46.56-.39.8-.37c.24.02.3.08.46.16.16.08.29.34.34.41.06.07.06,0,.1,0,2.23-.13,4.47-.2,6.7-.25-2.35-1.6-4.61-3.18-7.03-4.76,0,0,.37-.01-.13,0-.51.02-2.75.11-3.6.18-.03,0-.11-.05-.13,0-.02.04-.08.22-.14.3-.18.24-.54.41-.82.38-.27-.03-.25-.04-.48-.16-.23-.13-.42-.53-.39-.78s.04-.23.16-.46.56-.4.8-.38c.25.03.29.06.46.16s.26.29.36.42c.03.03.06-.04.12-.04.99-.04,2-.1,3-.14-.68-.44-1.35-.89-2.03-1.34-.29.23-.74.36-1.07.33s-.53-.1-.76-.26c-.48-.34-.7-.8-.68-1.36,0-.27.1-.51.27-.72.34-.46.83-.68,1.41-.65.28.01.52.1.75.26.57.42.77.99.61,1.67,1.38.91,2.77,1.83,4.14,2.76-.32-.94-.62-1.89-.97-2.83,0-.02.02-.03-.01-.04s0,.02-.1,0c-.11-.03-.26-.04-.44-.16s-.42-.52-.38-.77.04-.25.17-.46.56-.41.8-.38.32.05.46.16c.44.33.49.78.25,1.24-.05.09-.16.17-.2.21-.03.04,0,.03.01.04.41,1.18.81,2.36,1.2,3.54,2.33,1.55,4.68,3.22,6.98,4.71-.51-1.46-1.71-5.04-2.05-6.02-.29-.84-.04-.15-.06-.2-.15-.24,0,0-.14-.07s-.25-.03-.44-.17c-.19-.15-.42-.53-.38-.78s.04-.24.16-.46c.13-.22.57-.4.8-.37s.31.05.45.15c.44.32.49.79.26,1.24-.05.1-.16.16-.19.2s0,.02,0,.03c.44,2.35,1.39,4.56,2.3,6.76.04.09.01.13,0,.2,2.97,1.99,5.99,3.9,9,5.82-.9-2.02-1.79-4.07-2.3-6.23,0-.01.02,0-.01-.01-.03,0,.02.02-.09,0s-.25-.03-.44-.16-.44-.52-.4-.77.03-.24.16-.46c.13-.22.55-.42.79-.39.23.03.32.04.46.15.44.32.51.77.28,1.24-.05.1-.18.11-.2.22,0,.01,0,0,0,0,.8,2.22,1.63,4.45,2.45,6.65.04.1.02.13,0,.21,6.33,4,13.46,7.75,20.01,11.36-.03-10.67-.33-21.88-.36-32.53-.11-.04-.16-.04-.25-.15-2.07-2.67-4.04-5.45-6.25-8.02,0,0,.04-.02-.03,0-.07.01-.26.08-.41.06-.73-.07-1.25-.53-1.29-1.27-.02-.37.13-.66.37-.91.24-.25.56-.37.92-.38.35,0,.67.13.91.37.25.23.37.58.39.89.01.31-.09.49-.22.74h.01c2.04,2.45,3.94,4.99,5.84,7.53-.02-5.03-.05-10.07-.06-15.09-.11-.04-.16-.04-.25-.15-2.06-2.69-4.02-5.48-6.22-8.07,0,0,.04-.03-.03-.02s-.25.07-.39.06c-.73-.08-1.25-.54-1.29-1.28-.02-.37.13-.65.37-.91.24-.25.56-.37.92-.38.35,0,.66.13.91.37.25.23.37.58.38.9s-.1.51-.23.75h.01c2.03,2.45,3.92,5.01,5.81,7.56,0-3.96-.01-7.93,0-11.89-1.1-1.39-2.19-2.8-3.26-4.22-.02-.03.03-.06-.05-.06s-.27.08-.42.06c-.72-.08-1.24-.54-1.27-1.27-.02-.37.13-.65.37-.9s.56-.37.91-.37.67.14.92.37.37.58.38.89c.01.31-.11.5-.22.75-.01.02.03.02.04.04.84,1.14,1.72,2.27,2.6,3.39v-6.98c-.93-.37-1.5-1.06-1.53-2.06-.02-.61.22-1.1.63-1.52s.95-.63,1.54-.63,1.12.22,1.55.63c.42.41.62.95.64,1.51s-.29,1.15-.62,1.51-.54.39-.93.56v3.4c.85-1.12,1.73-2.22,2.56-3.34.05-.06.15-.05.13-.11-.08-.24-.25-.44-.22-.75.02-.32.13-.66.38-.89s.56-.37.92-.37.67.13.92.37c.25.25.37.55.38.91.01.35-.16.65-.37.9-.22.25-.65.35-.89.38s-.39-.09-.49-.08-.03.09-.08.15c-1.12,1.36-2.16,2.78-3.23,4.18v11.88c1.94-2.48,3.9-4.97,5.75-7.51.04-.05.11-.05.09-.09-.1-.25-.24-.44-.22-.75s.13-.66.38-.9c.25-.23.56-.37.92-.37s.67.13.92.37c.25.25.37.56.38.91.01.35-.16.65-.37.91s-.66.35-.89.38c-.23.03-.35-.07-.46-.07s-.04.06-.08.11c-2.01,2.72-4.08,5.43-6.2,8.07-.08.1-.12.1-.22.15,0,5.02.03,10.04.05,15.06,1.94-2.48,3.88-4.98,5.73-7.52.02-.03.06-.03.04-.05-.12-.25-.23-.44-.23-.75.01-.31.13-.66.38-.89s.56-.38.91-.37c.35,0,.67.13.92.37.25.25.38.55.39.9s-.13.65-.37.91c-.24.25-.58.35-.91.38-.14,0-.35-.06-.42-.06s-.03.03-.04.06c-2,2.74-4.06,5.44-6.17,8.09-.08.1-.12.1-.22.15.04,11.85-.32,24.21-.39,36.06,6.98-3.6,14.5-7.31,21.13-11.55-.01-.08-.03-.12,0-.21.88-2.22,1.72-4.49,2.53-6.75h0c-.02-.11-.15-.13-.2-.22-.25-.46-.17-.92.27-1.24.15-.11.23-.13.47-.16.24-.03.67.16.8.38.13.22.12.21.16.46.04.25-.21.66-.4.79-.19.13-.32.15-.44.16s-.04-.03-.11,0c0,0,0,0,0,0-.77,2.11-1.57,4.21-2.36,6.32,3.09-2,6.2-3.98,9.21-6.09-.02-.08-.04-.12,0-.21.9-2.27,1.91-4.54,2.34-6.95,0,0,0,0,0-.01,0-.11-.15-.11-.2-.2-.26-.46-.2-.91.23-1.26.14-.11.22-.13.46-.16s.67.14.81.36.13.2.18.45-.19.67-.37.8c-.18.14-.34.16-.44.18s-.08,0-.11,0c-.04,0,0,0,0,.01-.45,2.24-1.29,4.4-2.18,6.5,2.38-1.69,4.74-3.4,7.1-5.11.37-1.21.75-2.43,1.13-3.64,0-.02.04,0,0-.04s-.16-.11-.21-.21c-.25-.46-.21-.92.22-1.27.15-.11.22-.14.46-.18s.67.13.81.35.13.21.18.47c.05.25-.18.67-.35.81s-.34.16-.44.19-.07,0-.1.01,0,.03,0,.04c-.32.96-.61,1.93-.91,2.9,1.36-1,2.72-2,4.1-2.98-.17-.68,0-1.25.57-1.69.22-.17.46-.25.74-.27.57-.04,1.07.16,1.43.61.17.22.27.44.29.72.04.56-.17,1.03-.64,1.37-.23.16-.43.25-.76.29s-.79-.07-1.08-.29c-.67.48-1.33.96-2,1.43,1,0,2.02.03,3.02.03.06,0,.1.06.12.03.1-.14.18-.34.35-.44s.22-.14.46-.17c.25-.03.68.13.82.35s.15.21.18.46h-.03v-.13Z"/>
    </g>
  </g>
  <g>
    <path d="M252.9,173.28c-1.49,0-2.78-.32-3.89-.95s-1.96-1.54-2.57-2.72c-.61-1.18-.91-2.59-.91-4.24,0-1.55.24-3.05.73-4.52.48-1.46,1.18-2.78,2.08-3.94.91-1.17,2-2.09,3.28-2.78s2.72-1.03,4.32-1.03c1.01,0,1.94.15,2.79.43.85.29,1.59.71,2.21,1.27.63.55,1.12,1.23,1.46,2.02.35.79.53,1.7.53,2.72h-2.5c-.03-.67-.16-1.26-.4-1.77s-.57-.94-.98-1.29c-.41-.35-.89-.62-1.44-.8-.54-.18-1.13-.27-1.77-.27-1.23,0-2.33.28-3.31.84s-1.8,1.32-2.48,2.27c-.68.95-1.2,2.01-1.56,3.18-.36,1.17-.54,2.37-.54,3.58s.22,2.27.65,3.11,1.02,1.48,1.78,1.91c.76.43,1.63.64,2.61.64.67,0,1.32-.09,1.96-.27.64-.18,1.23-.45,1.79-.8.56-.35,1.05-.78,1.48-1.29s.77-1.1,1.02-1.77h2.52c-.34,1-.81,1.9-1.4,2.69s-1.28,1.47-2.06,2.03-1.64.99-2.55,1.29c-.91.29-1.86.44-2.85.44Z"/>
    <path d="M273.04,173.33c-1.19,0-2.21-.25-3.06-.75-.85-.5-1.51-1.2-1.97-2.1-.46-.91-.69-1.96-.69-3.18s.18-2.3.55-3.4.89-2.09,1.58-2.96c.69-.88,1.52-1.57,2.5-2.08.98-.51,2.09-.77,3.32-.77s2.21.25,3.07.74,1.52,1.19,1.98,2.1c.46.91.69,1.97.69,3.2s-.18,2.33-.55,3.43-.9,2.08-1.6,2.95c-.7.87-1.54,1.56-2.52,2.06-.98.5-2.08.76-3.3.76ZM273.09,171.21c.91,0,1.7-.21,2.39-.63s1.27-.98,1.73-1.67c.47-.69.82-1.45,1.05-2.27s.36-1.64.36-2.45c0-.75-.12-1.42-.36-2.02s-.61-1.07-1.11-1.42-1.16-.53-1.96-.53c-.9,0-1.69.21-2.37.63s-1.26.98-1.73,1.67-.82,1.46-1.05,2.29c-.24.83-.36,1.65-.36,2.47,0,1.11.27,2.04.8,2.79s1.4,1.13,2.6,1.13Z"/>
    <path d="M289.65,164.26l-1.46,8.75h-2.37l2.45-14.74h2.28l-.58,3.57-.34-.08c.66-1.33,1.44-2.28,2.33-2.84.9-.56,1.89-.84,2.99-.84,1.02,0,1.88.21,2.58.63s1.2,1.05,1.5,1.88c.29.84.34,1.88.13,3.12l-1.54,9.28h-2.37l1.54-9.24c.19-1.15.05-2.03-.42-2.64-.47-.61-1.21-.91-2.2-.91-.72,0-1.4.16-2.03.48-.63.32-1.17.78-1.61,1.38-.44.6-.73,1.33-.87,2.17Z"/>
    <path d="M309.54,173.33c-.98,0-1.84-.14-2.58-.42s-1.32-.69-1.75-1.23c-.44-.54-.7-1.19-.78-1.96,0-.06-.02-.12-.02-.18,0-.06,0-.12,0-.18l2.29-.38c.07.81.36,1.39.86,1.74s1.18.53,2.03.53c.71,0,1.35-.11,1.91-.33s1.02-.51,1.37-.87c.35-.36.56-.75.63-1.19.07-.47-.04-.86-.32-1.17-.28-.31-.77-.55-1.46-.72l-2.36-.58c-1.28-.32-2.2-.82-2.76-1.52-.56-.69-.75-1.58-.57-2.65.14-.82.49-1.54,1.05-2.16s1.27-1.11,2.13-1.46c.86-.35,1.8-.52,2.81-.52,1.42,0,2.49.29,3.24.86.74.58,1.23,1.31,1.47,2.21.03.09.05.18.07.27.02.09.04.19.05.28l-2.18.4c-.11-.53-.36-.99-.75-1.4-.38-.4-1.03-.61-1.94-.61-.61,0-1.17.1-1.69.3s-.95.47-1.29.82c-.34.34-.54.73-.61,1.17-.09.51.03.92.36,1.21.33.3.9.55,1.73.75l2.14.53c1.28.32,2.2.82,2.76,1.52.55.7.74,1.57.57,2.61-.11.62-.34,1.2-.7,1.73s-.82.98-1.39,1.37c-.57.39-1.21.69-1.94.9s-1.52.32-2.36.32Z"/>
    <path d="M326.34,173.2c-.98,0-1.82-.2-2.5-.61s-1.16-1.02-1.45-1.85-.33-1.86-.12-3.11l1.54-9.36h2.37l-1.5,9.16c-.18,1.12-.04,2.01.44,2.66.48.65,1.24.97,2.27.97.69,0,1.35-.15,1.96-.46.61-.3,1.13-.75,1.56-1.34s.72-1.31.86-2.16l1.45-8.83h2.39l-2.44,14.74h-2.29l.59-3.57h.32c-.68,1.38-1.48,2.35-2.41,2.91s-1.94.84-3.03.84Z"/>
    <path d="M345.64,153.37l-3.26,19.64h-2.37l3.26-19.64h2.37Z"/>
    <path d="M357.87,158.27l-.33,2.03h-7.62l.33-2.03h7.62ZM353.06,154.77h2.37l-2.39,14.42c-.11.68-.06,1.16.17,1.46.23.29.65.44,1.25.44.15,0,.34-.02.58-.05s.46-.07.66-.11l.15,2c-.24.08-.51.14-.83.19-.32.05-.64.07-.96.07-1.29,0-2.23-.34-2.83-1.01-.59-.68-.79-1.61-.6-2.81l2.43-14.61Z"/>
    <path d="M366.99,173.33c-1.19,0-2.21-.25-3.06-.75-.85-.5-1.51-1.2-1.97-2.1-.46-.91-.69-1.96-.69-3.18s.18-2.3.55-3.4c.37-1.1.89-2.09,1.58-2.96.69-.88,1.53-1.57,2.5-2.08.98-.51,2.08-.77,3.32-.77s2.21.25,3.07.74,1.52,1.19,1.98,2.1c.46.91.69,1.97.69,3.2s-.19,2.33-.55,3.43-.9,2.08-1.6,2.95c-.7.87-1.54,1.56-2.52,2.06-.98.5-2.08.76-3.3.76ZM367.04,171.21c.91,0,1.7-.21,2.39-.63.69-.42,1.27-.98,1.73-1.67.46-.69.82-1.45,1.05-2.27.24-.83.36-1.64.36-2.45,0-.75-.12-1.42-.36-2.02-.24-.6-.61-1.07-1.11-1.42-.5-.35-1.16-.53-1.96-.53-.9,0-1.69.21-2.37.63s-1.26.98-1.73,1.67c-.47.69-.82,1.46-1.05,2.29-.24.83-.36,1.65-.36,2.47,0,1.11.27,2.04.8,2.79s1.4,1.13,2.6,1.13Z"/>
    <path d="M379.78,173.01l2.44-14.74h2.29l-.37,2.27h.16c.39-.75.97-1.35,1.75-1.8.78-.45,1.61-.68,2.49-.68.18,0,.38,0,.62.01.24,0,.43.02.57.03l-.4,2.39c-.11-.02-.29-.04-.56-.08-.27-.04-.55-.05-.84-.05-.7,0-1.36.15-1.96.44-.61.29-1.11.7-1.51,1.21-.4.51-.66,1.11-.77,1.77l-1.53,9.23h-2.37Z"/>
    <path d="M392.89,173.01l2.44-14.74h2.37l-2.44,14.74h-2.37ZM395.75,156.11l2.45-3.64h2.65l-3.16,3.64h-1.94Z"/>
    <path d="M407.59,173.33c-1.22,0-2.25-.31-3.09-.94-.83-.63-1.42-1.52-1.76-2.66-.34-1.15-.38-2.5-.12-4.05.26-1.56.76-2.91,1.48-4.04.72-1.13,1.6-2,2.65-2.62,1.04-.62,2.18-.92,3.4-.92.95,0,1.68.16,2.19.47.51.31.88.67,1.11,1.07.23.4.41.74.53,1.01h.2l.38-2.36h2.39l-2.44,14.74h-2.31l.37-2.28h-.28c-.22.29-.52.64-.9,1.05-.38.41-.88.77-1.49,1.08-.62.31-1.39.47-2.32.47ZM408.33,171.21c.9,0,1.69-.24,2.38-.71.69-.47,1.26-1.13,1.72-1.96s.77-1.8.95-2.89c.18-1.09.19-2.04,0-2.85-.18-.81-.54-1.45-1.08-1.9-.54-.45-1.26-.68-2.16-.68-.94,0-1.76.24-2.47.73-.71.49-1.28,1.14-1.73,1.96-.44.82-.75,1.73-.92,2.74-.17,1.03-.16,1.96.01,2.81s.54,1.51,1.08,2.01c.54.5,1.28.74,2.2.74Z"/>
    <path d="M426.44,173.33c-.98,0-1.84-.14-2.58-.42-.73-.28-1.32-.69-1.75-1.23-.44-.54-.7-1.19-.79-1.96,0-.06-.01-.12-.02-.18,0-.06,0-.12,0-.18l2.29-.38c.07.81.36,1.39.86,1.74s1.18.53,2.03.53c.71,0,1.35-.11,1.91-.33s1.02-.51,1.37-.87c.35-.36.56-.75.63-1.19.07-.47-.04-.86-.32-1.17-.28-.31-.77-.55-1.46-.72l-2.36-.58c-1.28-.32-2.2-.82-2.76-1.52-.56-.69-.75-1.58-.57-2.65.14-.82.49-1.54,1.05-2.16s1.27-1.11,2.13-1.46c.86-.35,1.79-.52,2.81-.52,1.42,0,2.49.29,3.24.86.74.58,1.23,1.31,1.47,2.21.03.09.05.18.07.27.02.09.04.19.05.28l-2.18.4c-.11-.53-.36-.99-.75-1.4-.38-.4-1.03-.61-1.94-.61-.61,0-1.17.1-1.69.3s-.95.47-1.29.82c-.34.34-.54.73-.61,1.17-.09.51.03.92.36,1.21.33.3.9.55,1.73.75l2.14.53c1.28.32,2.2.82,2.76,1.52.55.7.74,1.57.57,2.61-.11.62-.34,1.2-.7,1.73s-.82.98-1.39,1.37c-.57.39-1.21.69-1.94.9s-1.52.32-2.36.32Z"/>
    <path d="M447.42,178.35l.95-2.06.22.05c.48.11.93.14,1.34.08.41-.06.8-.25,1.16-.58.37-.33.72-.84,1.08-1.54l.62-1.23-3.18-14.82h2.48l1.7,8.74c.18.91.31,1.81.39,2.71.08.9.18,1.77.3,2.62h-.87c.4-.84.78-1.72,1.16-2.62.38-.9.81-1.8,1.29-2.71l4.6-8.74h2.7l-9.28,16.94c-.42.77-.89,1.41-1.39,1.92-.51.5-1.05.88-1.65,1.13-.59.25-1.24.37-1.94.37-.39,0-.73-.03-1.04-.09-.3-.06-.52-.12-.64-.18Z"/>
    <path d="M484.99,173.28c-1.49,0-2.78-.32-3.89-.95s-1.96-1.54-2.57-2.72c-.61-1.18-.91-2.59-.91-4.24,0-1.55.24-3.05.73-4.52.48-1.46,1.18-2.78,2.08-3.94.91-1.17,2-2.09,3.28-2.78,1.28-.69,2.72-1.03,4.32-1.03,1.01,0,1.94.15,2.79.43.85.29,1.59.71,2.21,1.27.63.55,1.12,1.23,1.46,2.02.35.79.53,1.7.53,2.72h-2.5c-.03-.67-.16-1.26-.4-1.77-.24-.51-.57-.94-.98-1.29-.41-.35-.89-.62-1.44-.8-.54-.18-1.13-.27-1.77-.27-1.23,0-2.33.28-3.31.84-.97.56-1.8,1.32-2.48,2.27-.68.95-1.2,2.01-1.56,3.18-.36,1.17-.54,2.37-.54,3.58s.22,2.27.65,3.11,1.02,1.48,1.78,1.91c.76.43,1.63.64,2.61.64.67,0,1.32-.09,1.96-.27.64-.18,1.24-.45,1.79-.8.56-.35,1.05-.78,1.48-1.29s.77-1.1,1.01-1.77h2.52c-.34,1-.81,1.9-1.4,2.69s-1.28,1.47-2.06,2.03c-.79.56-1.64.99-2.55,1.29-.91.29-1.86.44-2.85.44Z"/>
    <path d="M504.51,173.33c-1.22,0-2.25-.31-3.09-.94-.83-.63-1.42-1.52-1.76-2.66-.34-1.15-.38-2.5-.12-4.05.26-1.56.76-2.91,1.48-4.04.72-1.13,1.6-2,2.65-2.62,1.04-.62,2.18-.92,3.4-.92.95,0,1.68.16,2.19.47.51.31.88.67,1.11,1.07.23.4.41.74.53,1.01h.2l.38-2.36h2.39l-2.44,14.74h-2.31l.37-2.28h-.28c-.22.29-.52.64-.9,1.05-.38.41-.88.77-1.49,1.08-.62.31-1.39.47-2.32.47ZM505.25,171.21c.9,0,1.69-.24,2.38-.71.69-.47,1.26-1.13,1.72-1.96s.77-1.8.95-2.89c.18-1.09.19-2.04,0-2.85-.18-.81-.54-1.45-1.08-1.9-.54-.45-1.26-.68-2.16-.68-.94,0-1.76.24-2.47.73-.71.49-1.28,1.14-1.73,1.96-.44.82-.75,1.73-.92,2.74-.17,1.03-.16,1.96.01,2.81s.54,1.51,1.08,2.01c.54.5,1.28.74,2.2.74Z"/>
    <path d="M517.36,178.52l3.36-20.25h2.29l-.4,2.36h.12c.21-.3.5-.65.88-1.05.37-.4.87-.75,1.48-1.05s1.39-.45,2.32-.45c1.08,0,2.02.24,2.81.71s1.4,1.15,1.83,2.03.65,1.93.65,3.15c0,1.14-.17,2.27-.51,3.38-.34,1.11-.83,2.12-1.47,3.01s-1.43,1.61-2.35,2.15c-.93.54-1.98.8-3.16.8-.96,0-1.7-.17-2.23-.49-.53-.33-.92-.71-1.17-1.13-.25-.42-.43-.77-.55-1.04h-.22l-1.3,7.86h-2.37ZM524.9,171.21c.88,0,1.65-.21,2.33-.65.67-.43,1.24-1,1.7-1.71.46-.71.81-1.48,1.04-2.32.23-.84.35-1.67.35-2.49,0-1.12-.27-2.05-.8-2.76-.53-.72-1.37-1.07-2.5-1.07-.89,0-1.67.21-2.33.63-.67.42-1.22.97-1.67,1.67-.44.7-.78,1.46-1,2.31-.22.84-.34,1.69-.34,2.54,0,1.17.27,2.1.8,2.8.54.7,1.34,1.05,2.41,1.05Z"/>
    <path d="M542.97,173.33c-1.22,0-2.25-.31-3.09-.94-.83-.63-1.42-1.52-1.76-2.66-.34-1.15-.38-2.5-.12-4.05.26-1.56.76-2.91,1.48-4.04.72-1.13,1.6-2,2.65-2.62,1.04-.62,2.18-.92,3.4-.92.95,0,1.68.16,2.19.47.51.31.88.67,1.11,1.07.23.4.41.74.53,1.01h.2l.38-2.36h2.39l-2.44,14.74h-2.31l.37-2.28h-.28c-.22.29-.52.64-.9,1.05-.38.41-.88.77-1.49,1.08-.62.31-1.39.47-2.32.47ZM543.71,171.21c.9,0,1.69-.24,2.38-.71.69-.47,1.26-1.13,1.72-1.96s.77-1.8.95-2.89c.18-1.09.19-2.04,0-2.85-.18-.81-.54-1.45-1.08-1.9-.54-.45-1.26-.68-2.16-.68-.94,0-1.76.24-2.47.73-.71.49-1.28,1.14-1.73,1.96-.44.82-.75,1.73-.92,2.74-.17,1.03-.16,1.96.01,2.81s.54,1.51,1.08,2.01c.54.5,1.28.74,2.2.74Z"/>
    <path d="M562.83,173.33c-1.19,0-2.21-.25-3.06-.75-.85-.5-1.51-1.2-1.97-2.1-.46-.91-.69-1.96-.69-3.18s.18-2.3.55-3.4c.37-1.1.89-2.09,1.58-2.96.69-.88,1.52-1.57,2.5-2.08.98-.51,2.09-.77,3.33-.77.73,0,1.4.09,2.02.28.62.19,1.16.46,1.63.82.47.36.85.8,1.15,1.3.3.51.5,1.09.59,1.73l-2.32.51c-.04-.38-.14-.72-.3-1.03-.16-.31-.37-.57-.63-.8-.26-.22-.58-.4-.94-.52-.37-.12-.78-.18-1.26-.18-.9,0-1.69.21-2.37.63s-1.26.98-1.73,1.67c-.47.69-.82,1.46-1.06,2.29-.24.83-.36,1.65-.36,2.47,0,.73.12,1.39.35,1.99.23.6.6,1.07,1.1,1.42.5.35,1.15.52,1.95.52.51,0,.99-.07,1.44-.21.45-.14.87-.34,1.24-.59.37-.25.7-.54.98-.88.28-.34.5-.71.67-1.1l2.19.76c-.3.65-.68,1.23-1.13,1.74-.46.51-.97.94-1.54,1.3-.57.36-1.19.63-1.85.82-.66.19-1.34.28-2.06.28Z"/>
    <path d="M574.85,173.01l2.44-14.74h2.37l-2.44,14.74h-2.37ZM578.89,155.86c-.45,0-.81-.15-1.08-.46s-.37-.68-.3-1.11c.07-.44.29-.81.67-1.11.38-.3.79-.45,1.24-.45s.82.15,1.09.45c.27.3.37.67.3,1.11-.07.43-.29.8-.67,1.11s-.79.46-1.25.46Z"/>
    <path d="M592.32,158.27l-.33,2.03h-7.62l.33-2.03h7.62ZM587.51,154.77h2.37l-2.39,14.42c-.12.68-.06,1.16.17,1.46.23.29.65.44,1.25.44.15,0,.34-.02.58-.05.24-.04.46-.07.66-.11l.15,2c-.24.08-.51.14-.83.19-.32.05-.64.07-.96.07-1.29,0-2.23-.34-2.83-1.01-.59-.68-.79-1.61-.6-2.81l2.43-14.61Z"/>
    <path d="M600.82,173.33c-1.22,0-2.25-.31-3.09-.94-.83-.63-1.42-1.52-1.76-2.66-.34-1.15-.38-2.5-.12-4.05.26-1.56.76-2.91,1.48-4.04.72-1.13,1.6-2,2.65-2.62,1.04-.62,2.18-.92,3.4-.92.95,0,1.68.16,2.19.47.51.31.88.67,1.11,1.07.23.4.41.74.53,1.01h.2l.38-2.36h2.39l-2.44,14.74h-2.31l.37-2.28h-.28c-.22.29-.52.64-.9,1.05-.38.41-.88.77-1.49,1.08-.62.31-1.39.47-2.32.47ZM601.56,171.21c.9,0,1.69-.24,2.38-.71.69-.47,1.26-1.13,1.72-1.96s.77-1.8.95-2.89c.18-1.09.19-2.04,0-2.85-.18-.81-.54-1.45-1.08-1.9-.54-.45-1.26-.68-2.16-.68-.94,0-1.76.24-2.47.73-.71.49-1.28,1.14-1.73,1.96-.44.82-.75,1.73-.92,2.74-.17,1.03-.16,1.96.01,2.81s.54,1.51,1.08,2.01c.54.5,1.28.74,2.2.74Z"/>
    <path d="M620.69,173.33c-1.19,0-2.21-.25-3.06-.75-.85-.5-1.51-1.2-1.97-2.1-.46-.91-.69-1.96-.69-3.18s.18-2.3.55-3.4c.37-1.1.89-2.09,1.58-2.96.69-.88,1.52-1.57,2.5-2.08.98-.51,2.09-.77,3.33-.77.73,0,1.4.09,2.02.28.62.19,1.16.46,1.63.82.47.36.85.8,1.15,1.3.3.51.5,1.09.59,1.73l-2.32.51c-.04-.38-.14-.72-.3-1.03-.16-.31-.37-.57-.63-.8-.26-.22-.58-.4-.94-.52-.37-.12-.78-.18-1.26-.18-.9,0-1.69.21-2.37.63s-1.26.98-1.73,1.67c-.47.69-.82,1.46-1.06,2.29-.24.83-.36,1.65-.36,2.47,0,.73.12,1.39.35,1.99.23.6.6,1.07,1.1,1.42.5.35,1.15.52,1.95.52.51,0,.99-.07,1.44-.21.45-.14.87-.34,1.24-.59.37-.25.7-.54.98-.88.28-.34.5-.71.67-1.1l2.19.76c-.3.65-.68,1.23-1.13,1.74-.46.51-.97.94-1.54,1.3-.57.36-1.19.63-1.85.82-.66.19-1.34.28-2.06.28Z"/>
    <path d="M632.71,173.01l2.44-14.74h2.37l-2.44,14.74h-2.37ZM636.74,155.86c-.45,0-.81-.15-1.08-.46s-.37-.68-.3-1.11c.07-.44.29-.81.67-1.11.38-.3.79-.45,1.24-.45s.82.15,1.09.45c.27.3.37.67.3,1.11-.07.43-.29.8-.67,1.11s-.79.46-1.25.46Z"/>
    <path d="M648.02,173.33c-1.19,0-2.21-.25-3.06-.75-.85-.5-1.51-1.2-1.97-2.1-.46-.91-.69-1.96-.69-3.18s.18-2.3.55-3.4c.37-1.1.89-2.09,1.58-2.96.69-.88,1.53-1.57,2.5-2.08.98-.51,2.08-.77,3.32-.77s2.21.25,3.07.74,1.52,1.19,1.98,2.1c.46.91.69,1.97.69,3.2s-.19,2.33-.55,3.43-.9,2.08-1.6,2.95c-.7.87-1.54,1.56-2.52,2.06-.98.5-2.08.76-3.3.76ZM648.07,171.21c.91,0,1.7-.21,2.39-.63.69-.42,1.27-.98,1.73-1.67.46-.69.82-1.45,1.05-2.27.24-.83.36-1.64.36-2.45,0-.75-.12-1.42-.36-2.02-.24-.6-.61-1.07-1.11-1.42-.5-.35-1.16-.53-1.96-.53-.9,0-1.69.21-2.37.63s-1.26.98-1.73,1.67c-.47.69-.82,1.46-1.05,2.29-.24.83-.36,1.65-.36,2.47,0,1.11.27,2.04.8,2.79s1.4,1.13,2.6,1.13Z"/>
    <path d="M664.63,164.26l-1.46,8.75h-2.37l2.45-14.74h2.28l-.58,3.57-.34-.08c.66-1.33,1.44-2.28,2.33-2.84.9-.56,1.89-.84,2.99-.84,1.02,0,1.88.21,2.58.63s1.2,1.05,1.5,1.88c.29.84.34,1.88.13,3.12l-1.54,9.28h-2.37l1.54-9.24c.19-1.15.05-2.03-.42-2.64-.47-.61-1.21-.91-2.2-.91-.72,0-1.4.16-2.03.48-.63.32-1.17.78-1.61,1.38-.44.6-.73,1.33-.87,2.17Z"/>
    <path d="M685.63,173.33c-1.21,0-2.25-.24-3.12-.71-.87-.47-1.53-1.16-2-2.04-.47-.89-.7-1.95-.7-3.19s.21-2.51.62-3.65c.41-1.14.99-2.14,1.73-3.01.74-.87,1.59-1.54,2.56-2.04.97-.49,2.01-.74,3.13-.74.95,0,1.78.17,2.48.49.7.33,1.25.8,1.63,1.4.39.6.58,1.31.58,2.13s-.21,1.53-.64,2.12c-.43.58-1.09,1.06-1.98,1.43s-2.05.64-3.45.81c-1.4.17-3.07.26-5.02.26l.32-1.79c1.61,0,2.95-.05,4.04-.14,1.08-.09,1.94-.25,2.58-.47.64-.22,1.09-.51,1.37-.88.28-.37.42-.83.42-1.38s-.24-1.01-.71-1.35c-.47-.34-1.09-.51-1.85-.51-.99,0-1.84.24-2.54.72-.7.48-1.27,1.09-1.71,1.85-.44.75-.76,1.55-.97,2.39-.21.84-.31,1.62-.31,2.35s.12,1.37.36,1.96c.24.58.63,1.05,1.17,1.39.54.34,1.26.51,2.16.51.94,0,1.78-.21,2.51-.61.73-.41,1.29-.96,1.67-1.67l2.2.62c-.54,1.16-1.4,2.08-2.58,2.75-1.17.67-2.49,1.01-3.95,1.01Z"/>
    <path d="M702.74,173.33c-.98,0-1.84-.14-2.58-.42-.73-.28-1.32-.69-1.75-1.23-.44-.54-.7-1.19-.79-1.96,0-.06-.01-.12-.02-.18,0-.06,0-.12,0-.18l2.29-.38c.07.81.36,1.39.86,1.74s1.18.53,2.03.53c.71,0,1.35-.11,1.91-.33s1.02-.51,1.37-.87c.35-.36.56-.75.63-1.19.07-.47-.04-.86-.32-1.17-.28-.31-.77-.55-1.46-.72l-2.36-.58c-1.28-.32-2.2-.82-2.76-1.52-.56-.69-.75-1.58-.57-2.65.14-.82.49-1.54,1.05-2.16s1.27-1.11,2.13-1.46c.86-.35,1.79-.52,2.81-.52,1.42,0,2.49.29,3.24.86.74.58,1.23,1.31,1.47,2.21.03.09.05.18.07.27.02.09.04.19.05.28l-2.18.4c-.11-.53-.36-.99-.75-1.4-.38-.4-1.03-.61-1.94-.61-.61,0-1.17.1-1.69.3s-.95.47-1.29.82c-.34.34-.54.73-.61,1.17-.09.51.03.92.36,1.21.33.3.9.55,1.73.75l2.14.53c1.28.32,2.2.82,2.76,1.52.55.7.74,1.57.57,2.61-.11.62-.34,1.2-.7,1.73s-.82.98-1.39,1.37c-.57.39-1.21.69-1.94.9s-1.52.32-2.36.32Z"/>
  </g>
</svg>