<?xml version="1.0" encoding="UTF-8"?>
<svg id="Capa_2" data-name="Capa 2" xmlns="http://www.w3.org/2000/svg" viewBox="0 0 164.53 164.53">
  <defs>
    <style>
      .cls-1 {
        fill: #007eba;
      }

      .cls-2 {
        fill: #fefefe;
      }
    </style>
  </defs>
  <g id="_3" data-name="3">
    <g>
      <path class="cls-1" d="M148.85,0c-.02.05,0,.13.03.16.05.04.11.05.23.07,7.82,1.23,13.95,7.38,15.19,15.2.02.11.03.18.07.23.03.03.11.05.16.03v133.17c-.05-.02-.13,0-.16.03-.04.05-.05.11-.07.23-1.24,7.81-7.38,13.96-15.19,15.2-.11.02-.19.03-.23.07-.03.03-.05.11-.03.16H15.68c.02-.05,0-.13-.03-.16-.04-.04-.12-.05-.23-.07-7.81-1.24-13.96-7.38-15.19-15.19-.02-.11-.03-.19-.07-.23-.03-.03-.11-.05-.16-.03V15.68c.05.02.13,0,.16-.03.04-.04.05-.12.07-.23C1.46,7.61,7.61,1.47,15.42.23c.11-.02.18-.03.23-.07.03-.03.05-.11.03-.16h133.17ZM51.92,37.47c0-8.04-6.52-14.56-14.56-14.56s-14.56,6.52-14.56,14.56,6.52,14.56,14.56,14.56,14.56-6.52,14.56-14.56ZM107.36,82.69c3.17.66,5.68,2.55,7.28,5.26,2,3.4,2.55,7.58,2.63,11.57v42.16s24.42-.01,24.42-.01v-50.64c-.11-13.19-5.09-25.03-18.24-29.39-3.68-1.21-7.46-1.66-11.35-1.57-9.48.13-18.09,5.01-23.12,13l-.02-10.61h-23.53s0,79.22,0,79.22h23.53s0-41.77,0-41.77c.04-3.69.58-7.39,2.28-10.59s4.31-5.36,7.7-6.31c2.75-.78,5.56-.91,8.42-.31ZM49.75,62.46h-24.54v79.22h24.54V62.46Z"/>
      <g>
        <path class="cls-2" d="M107.36,82.69c-2.87-.6-5.68-.46-8.42.31-3.38.96-6.06,3.22-7.7,6.31s-2.24,6.91-2.28,10.59v41.77s-23.53,0-23.53,0V62.47s23.53,0,23.53,0l.02,10.61c5.03-8,13.65-12.87,23.12-13,3.88-.08,7.67.37,11.35,1.57,13.15,4.36,18.12,16.2,18.23,29.39v50.64s-24.41.01-24.41.01v-42.16c-.08-3.99-.63-8.17-2.63-11.57-1.6-2.71-4.11-4.6-7.28-5.26Z"/>
        <g>
          <rect class="cls-2" x="25.21" y="62.46" width="24.54" height="79.22"/>
          <circle class="cls-2" cx="37.36" cy="37.47" r="14.56"/>
        </g>
      </g>
    </g>
  </g>
</svg>