<?xml version="1.0" encoding="UTF-8"?>
<svg id="Capa_2" data-name="Capa 2" xmlns="http://www.w3.org/2000/svg" viewBox="0 0 480.22 172.43">
  <defs>
    <style>
      .cls-1 {
        fill: #fff;
      }

      .cls-2 {
        letter-spacing: .73em;
      }

      .cls-3 {
        letter-spacing: .7em;
      }

      .cls-4 {
        fill: none;
        stroke: #a9842f;
        stroke-linecap: round;
        stroke-miterlimit: 10;
        stroke-width: .5px;
      }

      .cls-5 {
        fill: #a9842f;
        font-family: InterItalic-BoldItalic, Inter;
        font-size: 48px;
        font-style: italic;
        font-variation-settings: 'opsz' 14, 'wght' 700;
        font-weight: 700;
      }

      .cls-6 {
        fill: #18403e;
      }

      .cls-7 {
        fill: #472307;
      }

      .cls-8 {
        letter-spacing: .69em;
      }
    </style>
  </defs>
  <g id="Capa_2-2" data-name="Capa 2">
    <g id="uuid-ee100ac6-3409-41be-8612-32d07bc4856b" data-name="Capa 2-2">
      <g>
        <g>
          <path class="cls-1" d="M37.82,96.55c-22.15,0-35.81-10.61-37.47-29.09l-.35-3.88h23.54l.56,2.87c1.35,6.84,6.26,10.77,13.47,10.77,4.74,0,9.85-2.11,9.85-6.76,0-3.59-1.06-7.34-13.63-10.3-15.6-3.76-30.02-9.8-30.02-28.37C3.77,15.84,17.59,4.27,36.63,4.27s31.54,10.52,33.78,28.87l.49,3.99h-23.92l-.36-3.16c-.8-6.98-4.26-10.37-10.58-10.37-3.62,0-7.95,1.08-7.95,6.17,0,3.66,1.08,6.72,14.7,9.94,19.39,4.47,28.83,13.98,28.83,29.08,0,8.34-3.73,15.69-10.51,20.74-6.09,4.52-14.36,7.02-23.3,7.02h.01Z"/>
          <path class="cls-1" d="M106.97,96.55c-11.06,0-20.34-3.65-26.83-10.56-6.19-6.59-9.46-15.64-9.46-26.2,0-22.34,14.25-36.77,36.29-36.77s36.29,14.44,36.29,36.77c0,10.56-3.27,19.62-9.46,26.2-6.5,6.91-15.78,10.56-26.83,10.56h.01-.01ZM106.97,41.64c-11.03,0-12.22,12.69-12.22,18.15s1.2,18.15,12.22,18.15,12.22-12.69,12.22-18.15-1.2-18.15-12.22-18.15Z"/>
          <path class="cls-1" d="M146.83,94.89V24.68h6.53c-4.5-1.78-7.36-5.93-7.36-11.27,0-7.08,5.29-12.22,12.57-12.22s12.57,5.14,12.57,12.22c0,5.34-2.85,9.49-7.36,11.27h6.53v70.21h-23.49,0Z"/>
          <path class="cls-1" d="M195.22,95.72c-13.54,0-16.76-7.86-17.07-14.48-.25-2.97-.25-6-.25-10.19V.6h23.49v70.1c0,2.38,0,3.97.11,5.48.03.28.07.46.1.58.25.07.79.17,1.86.17.47,0,1.02-.02,1.63-.06l3.78-.24v18.24l-3.16.35c-3.09.35-6.32.49-10.48.49h0Z"/>
          <polygon class="cls-1" points="234.48 94.89 234.48 25.86 206.72 25.86 206.72 5.94 285.71 5.94 285.71 25.86 257.96 25.86 257.96 94.89 234.48 94.89"/>
          <path class="cls-1" d="M308.61,96.55c-9.87,0-18.29-3.18-24.36-9.2-6.49-6.43-9.92-15.88-9.92-27.33,0-21.79,14.64-37.01,35.58-37.01,10.18,0,18.72,3.71,24.73,10.75,5.4,6.33,8.36,15.11,8.36,24.71,0,1.62,0,3.63-.26,5.97l-.32,2.81h.48l-.94,4.32c-3.41,15.64-15.88,24.98-33.37,24.98h.02ZM298.42,67.61c1.72,9.05,6.45,10.32,10.54,10.32,5.36,0,8.88-2.8,9.65-7.67l.42-2.65h-20.62.01ZM318.39,49.82c-1.83-7.25-6.01-8.19-9.18-8.19-1.99,0-7.51,0-9.97,8.19h19.16-.01Z"/>
          <path class="cls-1" d="M376.57,96.55c-9.77,0-18.08-3.19-24.05-9.24-6.31-6.4-9.64-15.74-9.64-27.05s3.57-20.7,10.32-27.46c6.31-6.31,15.11-9.79,24.78-9.79,17.95,0,30.96,11.13,32.37,27.69l.33,3.86h-23.01l-.5-2.97c-1.49-8.83-5.88-9.96-9.54-9.96-9.29,0-10.68,11-10.68,17.55,0,8.55,1.83,18.74,10.56,18.74,4.92,0,8.06-3.08,9.32-9.15l.59-2.83h23.5l-.73,4.17c-2.9,16.55-15.48,26.43-33.63,26.43h.01s0,.01,0,.01Z"/>
          <path class="cls-1" d="M456.63,94.89v-36.89c0-2.56,0-5.44-.23-8.51-.39-5.43-3.02-7.86-8.55-7.86-9.28.14-10.68,13.14-10.68,20.87v32.37h-23.49V0h23.49v27.54c4.7-3.12,9.84-4.52,16.48-4.52,14.93,0,24.39,7.58,25.95,20.81.37,3.28.49,6.5.49,11.92v39.14h-23.49.03,0Z"/>
        </g>
        <g>
          <g>
            <path class="cls-7" d="M66.88,33.57h-16.73c-.95-8.31-5.57-13.52-14.11-13.52-6.53,0-11.51,3.08-11.51,9.73s4.38,10.32,17.43,13.4c18.03,4.15,26.09,12.45,26.09,25.62,0,15.42-14.11,24.2-30.24,24.2-19.57,0-32.38-8.66-33.92-25.86h16.73c1.78,9.01,8.66,13.64,16.97,13.64,7.48,0,13.4-4.04,13.4-10.32,0-6.88-4.27-10.91-16.36-13.76-16.73-4.04-27.28-9.85-27.28-24.91S20.99,7.83,36.64,7.83c19.57,0,28.47,11.15,30.24,25.74h0Z"/>
            <path class="cls-7" d="M139.71,59.79c0,19.1-11.74,33.21-32.74,33.21s-32.74-14.11-32.74-33.21,11.74-33.21,32.74-33.21,32.74,13.99,32.74,33.21ZM122.75,59.79c0-13.64-5.93-21.71-15.78-21.71s-15.78,8.07-15.78,21.71,5.93,21.71,15.78,21.71,15.78-8.19,15.78-21.71Z"/>
            <path class="cls-7" d="M167.58,13.41c0,5.22-3.68,8.66-9.01,8.66s-9.01-3.44-9.01-8.66,3.68-8.66,9.01-8.66,9.01,3.56,9.01,8.66ZM150.38,91.34V28.24h16.36v63.1h-16.36Z"/>
            <path class="cls-7" d="M197.83,70.7c0,2.49,0,4.15.12,5.81.36,3.2,1.78,4.27,7.36,3.92v11.27c-3.2.36-6.41.47-10.08.47-8.07,0-13.16-2.97-13.52-11.15-.24-2.85-.24-5.81-.24-9.96V4.17h16.36v66.54h0Z"/>
          </g>
          <g>
            <path class="cls-6" d="M254.4,22.31v69.03h-16.36V22.31h-27.76v-12.81h71.88v12.81h-27.76,0Z"/>
            <path class="cls-6" d="M339.21,64.06h-44.84c1.07,13.28,7,17.43,14.59,17.43,7,0,12.1-3.92,13.16-10.68h16.36c-3.2,14.71-15.06,22.18-29.89,22.18-17.31,0-30.72-10.79-30.72-32.98,0-19.34,12.69-33.45,32.03-33.45s29.53,14.71,29.53,31.91c0,1.54,0,3.44-.24,5.57h0l.02.02h0ZM294.85,53.38h27.76c-1.07-9.96-5.57-15.3-13.4-15.3s-12.93,4.86-14.35,15.3h-.01Z"/>
            <path class="cls-6" d="M406.81,51.01h-16.13c-1.54-9.13-6.29-12.93-13.05-12.93-8.31,0-14.23,6.76-14.23,21.11,0,15.66,5.93,22.3,14.11,22.3,6.41,0,11.15-4.04,12.81-11.98h16.36c-2.73,15.54-14.35,23.49-30.12,23.49-17.19,0-30.12-10.91-30.12-32.74s14.23-33.68,31.55-33.68,27.64,10.44,28.83,24.43c0,0-.01,0-.01,0Z"/>
            <path class="cls-6" d="M476.56,55.75v35.58h-16.36v-33.33c0-2.61,0-5.57-.24-8.78-.47-6.64-4.16-11.15-12.1-11.15-7.95.12-14.23,6.88-14.23,24.43v28.83h-16.36V3.55h16.36v34.87l4.86-7.48c4.5-3.2,9.13-4.38,15.18-4.38,13.4,0,21.11,6.64,22.42,17.67.36,3.2.47,6.41.47,11.51h0Z"/>
          </g>
        </g>
      </g>
    </g>
    <text class="cls-5" transform="translate(12.22 156.96)"><tspan class="cls-8" x="0" y="0">A</tspan><tspan class="cls-3" x="68.81" y="0">C</tspan><tspan class="cls-2" x="138" y="0">ADEMY</tspan></text>
    <line class="cls-4" x1="12.59" y1="108.03" x2="472.34" y2="108.03"/>
  </g>
</svg>